<?xml version="1.0" encoding="UTF-8"?>
<svg id="Layer_1" data-name="Layer 1" xmlns="http://www.w3.org/2000/svg" viewBox="0 0 929.84 277.79">
  <defs>
    <style>
      .cls-1 {
        fill: #fff;
      }

      .cls-2 {
        fill: #2bbba8;
      }

      .cls-3 {
        fill: #00a651;
      }

      .cls-4 {
        fill: #58595b;
      }
    </style>
  </defs>
  <polygon class="cls-1" points="202.25 231.93 70.7 235.76 70 201.29 28.42 200.24 31.47 92.04 202.25 92.04 202.25 231.93"/>
  <path class="cls-2" d="m35.59,185.84h145.12c1.1,0,2.14-.43,2.91-1.21l17.43-17.42c.77-.78,1.2-1.82,1.2-2.91V29.89c0-2.27-1.84-4.12-4.11-4.12H17.61c-2.26,0-4.11,1.84-4.11,4.12v169.81c0,2.26,1.84,4.11,4.11,4.11h41.21c4.75,0,8.62,3.85,8.62,8.61v41.21c0,2.27,1.83,4.12,4.11,4.12h126.6c2.26,0,4.11-1.84,4.11-4.12v-34.19c0-2.96-3.01-4.95-5.73-3.78l-23.96,10.26c-.55.25-1.16.37-1.77.37s-1.2-.12-1.75-.37c-2.29-.97-3.34-3.62-2.36-5.9l2.56-5.98h-94.58c-1.67,0-3.03-2.02-3.03-4.5,0-1.24.34-2.37.89-3.18.54-.82,1.3-1.32,2.14-1.32h97.1c.42,0,.83.12,1.19.36l2.07-4.84c1.16-2.72-.83-5.73-3.78-5.73H35.59c-2.27,0-4.12-1.84-4.12-4.12v-.76c0-2.26,1.84-4.11,4.12-4.11Z"/>
  <path class="cls-1" d="m59.76,95.69l44.94-44.95c1.76-1.75,4.6-1.75,6.36,0l5.81,5.81v-2.63c0-2.48,2.01-4.49,4.49-4.49h17.97c2.49,0,4.5,2.01,4.5,4.49v29.61l12.16,12.16c.84.84,1.32,1.99,1.32,3.18,0,2.48-2.02,4.49-4.5,4.5h-8.99v40.45c0,2.48-2.01,4.49-4.5,4.49h-62.91c-2.49,0-4.5-2.01-4.5-4.49v-40.45h-8.99c-1.19,0-2.34-.48-3.18-1.32-1.75-1.75-1.75-4.6,0-6.35Z"/>
  <path class="cls-1" d="m32.78,169.17c.82-.81,1.95-1.31,3.19-1.31h143.8c2.49,0,4.5,2.01,4.5,4.49,0,1.24-.5,2.37-1.31,3.18-.82.82-1.94,1.32-3.19,1.32H35.97c-2.49,0-4.5-2.02-4.5-4.5,0-1.24.5-2.37,1.31-3.18Z"/>
  <path class="cls-3" d="m190.08,202.49h0c2.06,2.06,1.39,5.54-1.29,6.69h0c-3.41,1.47-6.87-1.99-5.4-5.4h0c1.15-2.67,4.63-3.34,6.69-1.29Z"/>
  <path class="cls-2" d="m51.41,244.36l-24.54-24.54c-2.59-2.59-.76-7.02,2.91-7.02h24.54c2.27,0,4.11,1.84,4.11,4.11v24.54c0,3.67-4.43,5.5-7.02,2.91Z"/>
  <path class="cls-4" d="m109.17,78.95c-11.84,0-21.44,9.6-21.44,21.45,0,9.77,14.59,29.43,19.7,36.01.89,1.14,2.6,1.14,3.48,0,5.1-6.58,19.71-26.24,19.71-36.01,0-11.85-9.6-21.45-21.45-21.45Zm0,32.34c-6.14,0-11.12-4.98-11.12-11.13s4.98-11.12,11.12-11.12,11.12,4.98,11.12,11.12-4.97,11.13-11.12,11.13Z"/>
  <path class="cls-2" d="m262.01,88.71h25.11v12.12h-40.39V24.63h15.28v64.08Z"/>
  <path class="cls-2" d="m296.56,54.1c2.44-4.73,5.75-8.37,9.93-10.92,4.18-2.55,8.86-3.82,14.03-3.82,4.51,0,8.46.91,11.85,2.73,3.38,1.82,6.09,4.11,8.13,6.88v-8.63h15.39v60.48h-15.39v-8.84c-1.96,2.84-4.68,5.19-8.13,7.04-3.46,1.85-7.44,2.78-11.95,2.78-5.1,0-9.73-1.31-13.92-3.93-4.19-2.62-7.5-6.32-9.93-11.08-2.44-4.76-3.66-10.24-3.66-16.43s1.22-11.54,3.66-16.27Zm41.76,6.93c-1.46-2.65-3.42-4.69-5.9-6.11-2.47-1.42-5.13-2.13-7.97-2.13s-5.46.69-7.86,2.07c-2.4,1.38-4.35,3.4-5.84,6.06-1.49,2.66-2.24,5.81-2.24,9.44s.75,6.82,2.24,9.55c1.49,2.73,3.46,4.82,5.9,6.28,2.44,1.46,5.04,2.18,7.8,2.18s5.49-.71,7.97-2.13c2.47-1.42,4.44-3.46,5.9-6.11,1.45-2.65,2.18-5.84,2.18-9.55s-.73-6.9-2.18-9.55Z"/>
  <path class="cls-2" d="m421.82,46.3c4.44,4.55,6.66,10.9,6.66,19.05v35.48h-15.28v-33.4c0-4.8-1.2-8.5-3.6-11.08-2.4-2.58-5.68-3.88-9.82-3.88s-7.55,1.29-9.99,3.88c-2.44,2.58-3.66,6.28-3.66,11.08v33.4h-15.28v-60.48h15.28v7.53c2.04-2.62,4.64-4.68,7.8-6.17s6.64-2.24,10.43-2.24c7.21,0,13.03,2.28,17.47,6.82Z"/>
  <path class="cls-2" d="m442.73,54.1c2.44-4.73,5.77-8.37,9.99-10.92,4.22-2.55,8.91-3.82,14.08-3.82,3.93,0,7.68.86,11.24,2.57,3.56,1.71,6.4,3.99,8.51,6.82v-28.71h15.5v80.78h-15.5v-8.95c-1.89,2.98-4.55,5.38-7.97,7.2-3.42,1.82-7.39,2.73-11.9,2.73-5.09,0-9.75-1.31-13.97-3.93-4.22-2.62-7.55-6.32-9.99-11.08-2.44-4.76-3.66-10.24-3.66-16.43s1.22-11.54,3.66-16.27Zm41.76,6.93c-1.46-2.65-3.42-4.69-5.9-6.11-2.47-1.42-5.13-2.13-7.97-2.13s-5.46.69-7.86,2.07c-2.4,1.38-4.35,3.4-5.84,6.06-1.49,2.66-2.24,5.81-2.24,9.44s.75,6.82,2.24,9.55c1.49,2.73,3.46,4.82,5.9,6.28,2.44,1.46,5.04,2.18,7.8,2.18s5.49-.71,7.97-2.13c2.47-1.42,4.44-3.46,5.9-6.11,1.45-2.65,2.18-5.84,2.18-9.55s-.73-6.9-2.18-9.55Z"/>
  <path class="cls-2" d="m554.95,98.86c-4.26-1.82-7.63-4.44-10.1-7.86-2.47-3.42-3.75-7.46-3.82-12.12h16.37c.22,3.13,1.33,5.61,3.33,7.42,2,1.82,4.75,2.73,8.24,2.73s6.37-.85,8.4-2.57c2.04-1.71,3.06-3.95,3.06-6.71,0-2.25-.69-4.11-2.07-5.57-1.38-1.45-3.11-2.6-5.19-3.44-2.07-.83-4.93-1.76-8.57-2.78-4.95-1.45-8.97-2.89-12.06-4.31-3.09-1.42-5.75-3.56-7.97-6.44-2.22-2.87-3.33-6.72-3.33-11.52,0-4.51,1.13-8.44,3.38-11.79s5.42-5.91,9.5-7.7c4.08-1.78,8.73-2.67,13.97-2.67,7.86,0,14.25,1.91,19.16,5.73,4.91,3.82,7.62,9.15,8.13,15.99h-16.81c-.15-2.62-1.25-4.79-3.33-6.5-2.07-1.71-4.82-2.57-8.24-2.57-2.98,0-5.37.76-7.15,2.29-1.78,1.53-2.67,3.75-2.67,6.66,0,2.04.67,3.73,2.02,5.08,1.35,1.35,3.02,2.44,5.02,3.28,2,.84,4.82,1.8,8.46,2.89,4.95,1.45,8.99,2.91,12.12,4.36,3.13,1.46,5.82,3.64,8.08,6.55,2.25,2.91,3.38,6.73,3.38,11.46,0,4.08-1.06,7.86-3.17,11.35-2.11,3.49-5.2,6.28-9.28,8.35-4.08,2.07-8.92,3.11-14.52,3.11-5.31,0-10.1-.91-14.36-2.73Z"/>
  <path class="cls-2" d="m666.57,40.35v60.48h-15.39v-7.64c-1.97,2.62-4.53,4.68-7.7,6.17-3.17,1.49-6.61,2.24-10.32,2.24-4.73,0-8.91-1-12.55-3s-6.5-4.95-8.57-8.84c-2.07-3.89-3.11-8.53-3.11-13.92v-35.48h15.28v33.3c0,4.8,1.2,8.5,3.6,11.08,2.4,2.58,5.68,3.88,9.83,3.88s7.53-1.29,9.93-3.88c2.4-2.58,3.6-6.28,3.6-11.08v-33.3h15.39Z"/>
  <path class="cls-2" d="m704.62,42.21c3.17-1.82,6.78-2.73,10.86-2.73v16.05h-4.04c-4.8,0-8.42,1.13-10.86,3.38-2.44,2.26-3.66,6.19-3.66,11.79v30.13h-15.28v-60.48h15.28v9.39c1.96-3.2,4.53-5.71,7.7-7.53Z"/>
  <path class="cls-2" d="m750.95,86.75l15.28-46.4h16.27l-22.38,60.48h-18.56l-22.27-60.48h16.38l15.28,46.4Z"/>
  <path class="cls-2" d="m846.91,75.17h-44.21c.36,4.37,1.89,7.79,4.58,10.26,2.69,2.47,6.01,3.71,9.93,3.71,5.68,0,9.72-2.44,12.12-7.31h16.48c-1.75,5.82-5.1,10.61-10.04,14.35-4.95,3.75-11.03,5.62-18.23,5.62-5.82,0-11.04-1.29-15.66-3.88-4.62-2.58-8.22-6.24-10.81-10.97-2.58-4.73-3.88-10.19-3.88-16.37s1.27-11.75,3.82-16.48c2.55-4.73,6.11-8.37,10.7-10.92,4.58-2.55,9.86-3.82,15.83-3.82s10.9,1.24,15.45,3.71c4.55,2.47,8.08,5.99,10.59,10.53,2.51,4.55,3.77,9.77,3.77,15.67,0,2.18-.15,4.15-.44,5.89Zm-15.39-10.26c-.07-3.93-1.49-7.08-4.26-9.44-2.77-2.36-6.15-3.55-10.15-3.55-3.79,0-6.97,1.15-9.55,3.44-2.58,2.29-4.17,5.48-4.75,9.55h28.71Z"/>
  <path class="cls-2" d="m916.34,40.35l-37.44,89.08h-16.27l13.1-30.13-24.23-58.95h17.14l15.61,42.25,15.83-42.25h16.27Z"/>
  <path class="cls-1" d="m290.57,157.85c5.82,2.96,10.28,7.2,13.38,12.7,3.1,5.5,4.65,11.99,4.65,19.44s-1.55,13.92-4.65,19.39c-3.1,5.47-7.56,9.65-13.38,12.54-5.82,2.89-12.7,4.34-20.65,4.34h-22.69v-72.86h22.69c7.94,0,14.83,1.48,20.65,4.44Zm.89,53.11c4.95-4.98,7.42-11.97,7.42-20.96s-2.49-16.13-7.47-21.22c-4.98-5.09-12.14-7.63-21.48-7.63h-13.17v57.29h13.17c9.41,0,16.59-2.49,21.53-7.47Z"/>
  <path class="cls-1" d="m321.46,157.8c-1.25-1.26-1.88-2.79-1.88-4.6s.63-3.34,1.88-4.6c1.25-1.25,2.79-1.88,4.6-1.88s3.22.63,4.44,1.88c1.22,1.26,1.83,2.79,1.83,4.6s-.61,3.34-1.83,4.6c-1.22,1.25-2.7,1.88-4.44,1.88s-3.35-.63-4.6-1.88Zm9.2,11.18v57.29h-9.51v-57.29h9.51Z"/>
  <path class="cls-1" d="m383.5,171.29c3.73,2.16,6.5,4.88,8.31,8.16v-10.46h9.62v58.54c0,5.23-1.12,9.88-3.34,13.96-2.23,4.08-5.42,7.27-9.57,9.56-4.15,2.3-8.98,3.45-14.48,3.45-7.53,0-13.8-1.78-18.82-5.33-5.02-3.55-7.98-8.4-8.89-14.53h9.41c1.05,3.48,3.2,6.29,6.48,8.42,3.27,2.13,7.21,3.19,11.81,3.19,5.23,0,9.5-1.64,12.81-4.91,3.31-3.28,4.97-7.88,4.97-13.8v-12.02c-1.88,3.35-4.67,6.14-8.36,8.36-3.7,2.23-8.02,3.35-12.96,3.35s-9.71-1.26-13.85-3.76c-4.15-2.51-7.41-6.03-9.77-10.56-2.37-4.53-3.55-9.69-3.55-15.47s1.18-10.99,3.55-15.42c2.37-4.43,5.63-7.86,9.77-10.3,4.15-2.44,8.76-3.66,13.85-3.66s9.29,1.08,13.01,3.24Zm5.7,14.95c-1.74-3.2-4.09-5.66-7.06-7.37-2.96-1.71-6.22-2.56-9.77-2.56s-6.79.84-9.72,2.51c-2.93,1.67-5.26,4.11-7,7.32-1.74,3.21-2.61,6.97-2.61,11.29s.87,8.21,2.61,11.45c1.74,3.24,4.08,5.72,7,7.42,2.93,1.71,6.17,2.56,9.72,2.56s6.81-.85,9.77-2.56c2.96-1.7,5.31-4.18,7.06-7.42,1.74-3.24,2.61-7.02,2.61-11.34s-.87-8.08-2.61-11.29Z"/>
  <path class="cls-1" d="m417.85,157.8c-1.25-1.26-1.88-2.79-1.88-4.6s.63-3.34,1.88-4.6c1.25-1.25,2.79-1.88,4.6-1.88s3.22.63,4.44,1.88c1.22,1.26,1.83,2.79,1.83,4.6s-.61,3.34-1.83,4.6c-1.22,1.25-2.7,1.88-4.44,1.88s-3.35-.63-4.6-1.88Zm9.2,11.18v57.29h-9.51v-57.29h9.51Z"/>
  <path class="cls-1" d="m454.85,176.83v33.77c0,2.79.59,4.76,1.78,5.9,1.18,1.15,3.24,1.73,6.17,1.73h7v8.05h-8.57c-5.3,0-9.27-1.22-11.92-3.66-2.65-2.44-3.97-6.45-3.97-12.02v-33.77h-7.42v-7.84h7.42v-14.43h9.51v14.43h14.95v7.84h-14.95Z"/>
  <path class="cls-1" d="m481.3,182c2.37-4.43,5.63-7.86,9.77-10.3,4.15-2.44,8.76-3.66,13.85-3.66s9.37,1.08,13.07,3.24c3.69,2.16,6.45,4.88,8.26,8.16v-10.46h9.62v57.29h-9.62v-10.66c-1.88,3.35-4.69,6.12-8.42,8.31-3.73,2.2-8.07,3.29-13.02,3.29s-9.69-1.26-13.8-3.76c-4.11-2.51-7.35-6.03-9.72-10.56-2.37-4.53-3.55-9.69-3.55-15.47s1.18-10.99,3.55-15.42Zm42.34,4.23c-1.74-3.2-4.09-5.66-7.06-7.37-2.96-1.71-6.22-2.56-9.77-2.56s-6.79.84-9.72,2.51c-2.93,1.67-5.26,4.11-7,7.32-1.74,3.21-2.61,6.97-2.61,11.29s.87,8.21,2.61,11.45c1.74,3.24,4.08,5.72,7,7.42,2.93,1.71,6.17,2.56,9.72,2.56s6.81-.85,9.77-2.56c2.96-1.7,5.31-4.18,7.06-7.42,1.74-3.24,2.61-7.02,2.61-11.34s-.87-8.08-2.61-11.29Z"/>
  <path class="cls-1" d="m561.48,148.92v77.36h-9.51v-77.36h9.51Z"/>
  <path class="cls-1" d="m578,157.8c-1.25-1.26-1.88-2.79-1.88-4.6s.63-3.34,1.88-4.6c1.25-1.25,2.79-1.88,4.6-1.88s3.22.63,4.44,1.88c1.22,1.26,1.83,2.79,1.83,4.6s-.61,3.34-1.83,4.6c-1.22,1.25-2.7,1.88-4.44,1.88s-3.35-.63-4.6-1.88Zm9.2,11.18v57.29h-9.51v-57.29h9.51Z"/>
  <path class="cls-1" d="m610.51,218.44h28.12v7.84h-38.99v-7.84l27.81-41.71h-27.6v-7.74h38.57v7.74l-27.91,41.71Z"/>
  <path class="cls-1" d="m650.96,182c2.37-4.43,5.63-7.86,9.77-10.3,4.15-2.44,8.76-3.66,13.85-3.66s9.37,1.08,13.07,3.24c3.69,2.16,6.45,4.88,8.26,8.16v-10.46h9.62v57.29h-9.62v-10.66c-1.88,3.35-4.69,6.12-8.42,8.31-3.73,2.2-8.07,3.29-13.02,3.29s-9.69-1.26-13.8-3.76c-4.11-2.51-7.35-6.03-9.72-10.56-2.37-4.53-3.55-9.69-3.55-15.47s1.18-10.99,3.55-15.42Zm42.34,4.23c-1.74-3.2-4.09-5.66-7.06-7.37-2.96-1.71-6.22-2.56-9.77-2.56s-6.79.84-9.72,2.51c-2.93,1.67-5.26,4.11-7,7.32-1.74,3.21-2.61,6.97-2.61,11.29s.87,8.21,2.61,11.45c1.74,3.24,4.08,5.72,7,7.42,2.93,1.71,6.17,2.56,9.72,2.56s6.81-.85,9.77-2.56c2.96-1.7,5.31-4.18,7.06-7.42,1.74-3.24,2.61-7.02,2.61-11.34s-.87-8.08-2.61-11.29Z"/>
  <path class="cls-1" d="m733.24,176.83v33.77c0,2.79.59,4.76,1.78,5.9,1.18,1.15,3.24,1.73,6.17,1.73h7v8.05h-8.57c-5.3,0-9.27-1.22-11.92-3.66-2.65-2.44-3.97-6.45-3.97-12.02v-33.77h-7.42v-7.84h7.42v-14.43h9.51v14.43h14.95v7.84h-14.95Z"/>
  <path class="cls-1" d="m760,157.8c-1.25-1.26-1.88-2.79-1.88-4.6s.63-3.34,1.88-4.6c1.25-1.25,2.79-1.88,4.6-1.88s3.22.63,4.44,1.88c1.22,1.26,1.83,2.79,1.83,4.6s-.61,3.34-1.83,4.6c-1.22,1.25-2.7,1.88-4.44,1.88s-3.35-.63-4.6-1.88Zm9.2,11.18v57.29h-9.51v-57.29h9.51Z"/>
  <path class="cls-1" d="m795.8,223.56c-4.36-2.44-7.77-5.91-10.24-10.4-2.47-4.5-3.71-9.71-3.71-15.63s1.27-11.03,3.82-15.52c2.54-4.5,6.01-7.94,10.4-10.35,4.39-2.4,9.3-3.61,14.74-3.61s10.35,1.2,14.74,3.61c4.39,2.4,7.86,5.84,10.4,10.3,2.54,4.46,3.82,9.65,3.82,15.58s-1.31,11.13-3.92,15.63c-2.61,4.5-6.15,7.96-10.61,10.4-4.46,2.44-9.41,3.66-14.84,3.66s-10.23-1.22-14.58-3.66Zm24.2-7.11c3-1.6,5.42-4.01,7.27-7.21,1.85-3.2,2.77-7.11,2.77-11.71s-.91-8.5-2.72-11.71c-1.81-3.2-4.18-5.59-7.11-7.16-2.93-1.57-6.1-2.35-9.51-2.35s-6.67.78-9.57,2.35c-2.89,1.57-5.21,3.96-6.95,7.16-1.74,3.21-2.61,7.11-2.61,11.71s.85,8.61,2.56,11.81c1.71,3.21,3.99,5.59,6.85,7.16,2.86,1.57,5.99,2.35,9.41,2.35s6.62-.8,9.62-2.4Z"/>
  <path class="cls-1" d="m897.16,174.27c4.32,4.22,6.48,10.3,6.48,18.24v33.77h-9.41v-32.41c0-5.71-1.43-10.09-4.28-13.12-2.86-3.03-6.76-4.55-11.71-4.55s-9.01,1.57-11.97,4.7c-2.96,3.13-4.44,7.7-4.44,13.69v31.68h-9.51v-57.29h9.51v8.16c1.88-2.93,4.44-5.19,7.68-6.8,3.24-1.6,6.81-2.4,10.72-2.4,6.97,0,12.61,2.11,16.94,6.32Z"/>
  <path class="cls-4" d="m202.25,178.7v21.54c-1.05,0-2.11-.4-2.91-1.2l-5.8-5.8c-1.6-1.61-1.6-4.21,0-5.82l8.72-8.72Z"/>
  <polygon class="cls-4" points="185.61 195.42 196.8 206.61 177.19 215.03 185.61 195.42"/>
</svg>