<?xml version="1.0" encoding="UTF-8"?>
<svg id="Layer_1" data-name="Layer 1" xmlns="http://www.w3.org/2000/svg" viewBox="0 0 500 500">
  <defs>
    <style>
      .cls-1 {
        fill: #fff;
      }

      .cls-2 {
        fill: #2bbba8;
      }

      .cls-3 {
        fill: #00a651;
      }

      .cls-4 {
        fill: #58595b;
      }
    </style>
  </defs>
  <polygon class="cls-1" points="443.19 434.59 173.9 442.44 172.47 371.86 87.34 369.73 93.6 148.22 443.19 148.22 443.19 434.59"/>
  <path class="cls-2" d="m102.03,340.24h297.06c2.24,0,4.38-.88,5.96-2.48l35.68-35.66c1.57-1.59,2.45-3.73,2.45-5.96V21c0-4.66-3.78-8.43-8.41-8.43H65.21c-4.64,0-8.41,3.78-8.41,8.43v347.62c0,4.64,3.78,8.41,8.41,8.41h84.35c9.73,0,17.64,7.89,17.64,17.62v84.35c0,4.66,3.75,8.43,8.41,8.43h259.16c4.64,0,8.41-3.78,8.41-8.43v-69.98c0-6.06-6.17-10.13-11.73-7.74l-49.05,21c-1.13.5-2.37.76-3.63.76s-2.45-.25-3.59-.76c-4.68-1.99-6.84-7.41-4.82-12.08l5.24-12.25h-193.62c-3.42,0-6.21-4.13-6.21-9.21,0-2.54.69-4.85,1.83-6.5,1.11-1.68,2.66-2.71,4.38-2.71h198.76c.86,0,1.7.25,2.43.73l4.24-9.9c2.37-5.56-1.7-11.73-7.74-11.73H102.03c-4.66,0-8.43-3.78-8.43-8.43v-1.55c0-4.64,3.78-8.41,8.43-8.41Z"/>
  <path class="cls-1" d="m151.5,155.7l91.99-92.01c3.61-3.59,9.42-3.59,13.03,0l11.89,11.89v-5.39c0-5.08,4.11-9.19,9.19-9.19h36.79c5.1,0,9.21,4.11,9.21,9.19v60.6l24.9,24.9c1.72,1.72,2.71,4.07,2.71,6.5,0,5.08-4.13,9.19-9.21,9.21h-18.4v82.8c0,5.08-4.11,9.19-9.21,9.19h-128.78c-5.1,0-9.21-4.11-9.21-9.19v-82.8h-18.4c-2.43,0-4.78-.99-6.5-2.71-3.59-3.59-3.59-9.42,0-13.01Z"/>
  <path class="cls-1" d="m96.28,306.13c1.68-1.66,3.99-2.69,6.52-2.69h294.38c5.1,0,9.21,4.11,9.21,9.19,0,2.54-1.03,4.85-2.69,6.5-1.68,1.68-3.96,2.71-6.52,2.71H102.81c-5.1,0-9.21-4.13-9.21-9.21,0-2.54,1.03-4.85,2.69-6.5Z"/>
  <path class="cls-3" d="m418.29,374.33h0c4.21,4.21,2.84,11.34-2.63,13.69h0c-6.99,3-14.06-4.07-11.06-11.06h0c2.35-5.47,9.48-6.85,13.7-2.63Z"/>
  <path class="cls-2" d="m134.42,460.04l-50.24-50.24c-5.31-5.31-1.55-14.38,5.96-14.38h50.24c4.65,0,8.42,3.77,8.42,8.42v50.24c0,7.5-9.07,11.26-14.38,5.96Z"/>
  <path class="cls-4" d="m252.65,121.44c-24.23,0-43.89,19.66-43.89,43.91,0,19.99,29.87,60.25,40.32,73.72,1.83,2.33,5.33,2.33,7.13,0,10.45-13.47,40.34-53.72,40.34-73.72,0-24.25-19.66-43.91-43.91-43.91Zm0,66.21c-12.57,0-22.76-10.2-22.76-22.78s10.2-22.76,22.76-22.76,22.76,10.2,22.76,22.76-10.17,22.78-22.76,22.78Z"/>
  <path class="cls-4" d="m443.2,325.63v44.1c-2.16,0-4.32-.81-5.96-2.46l-11.88-11.88c-3.28-3.3-3.28-8.62,0-11.91l17.85-17.85Z"/>
  <polygon class="cls-4" points="409.13 359.85 432.03 382.76 391.9 399.99 409.13 359.85"/>
</svg>