<?xml version="1.0" encoding="UTF-8"?>
<svg id="Layer_1" data-name="Layer 1" xmlns="http://www.w3.org/2000/svg" viewBox="0 0 929.84 277.79">
  <defs>
    <style>
      .cls-1 {
        fill: #fff;
      }

      .cls-2 {
        fill: #6d6c6d;
      }
    </style>
  </defs>
  <path class="cls-1" d="m44.29,188.13h141.61c1.07,0,2.09-.42,2.84-1.18l17.01-17c.75-.76,1.17-1.78,1.17-2.84V35.95c0-2.22-1.8-4.02-4.01-4.02H26.74c-2.21,0-4.01,1.8-4.01,4.02v165.71c0,2.21,1.8,4.01,4.01,4.01h40.21c4.64,0,8.41,3.76,8.41,8.4v40.21c0,2.22,1.79,4.02,4.01,4.02h123.54c2.21,0,4.01-1.8,4.01-4.02v-33.36c0-2.89-2.94-4.83-5.59-3.69l-23.38,10.01c-.54.24-1.13.36-1.73.36s-1.17-.12-1.71-.36c-2.23-.95-3.26-3.53-2.3-5.76l2.5-5.84h-92.3c-1.63,0-2.96-1.97-2.96-4.39,0-1.21.33-2.31.87-3.1.53-.8,1.27-1.29,2.09-1.29h94.75c.41,0,.81.12,1.16.35l2.02-4.72c1.13-2.65-.81-5.59-3.69-5.59H44.29c-2.22,0-4.02-1.8-4.02-4.02v-.74c0-2.21,1.8-4.01,4.02-4.01Zm23.58-87.97l43.85-43.86c1.72-1.71,4.49-1.71,6.21,0l5.67,5.67v-2.57c0-2.42,1.96-4.38,4.38-4.38h17.54c2.43,0,4.39,1.96,4.39,4.38v28.89l11.87,11.87c.82.82,1.29,1.94,1.29,3.1,0,2.42-1.97,4.38-4.39,4.39h-8.77v39.47c0,2.42-1.96,4.38-4.39,4.38h-61.39c-2.43,0-4.39-1.96-4.39-4.38v-39.47h-8.77c-1.16,0-2.28-.47-3.1-1.29-1.71-1.71-1.71-4.49,0-6.2Zm-26.32,71.71c.8-.79,1.9-1.28,3.11-1.28h140.33c2.43,0,4.39,1.96,4.39,4.38,0,1.21-.49,2.31-1.28,3.1-.8.8-1.89,1.29-3.11,1.29H44.66c-2.43,0-4.39-1.97-4.39-4.39,0-1.21.49-2.31,1.28-3.1Z"/>
  <path class="cls-2" d="m195.05,204.39h0c2.01,2.01,1.35,5.41-1.25,6.53h0c-3.33,1.43-6.7-1.94-5.27-5.27h0c1.12-2.61,4.52-3.26,6.53-1.26Z"/>
  <path class="cls-1" d="m206.93,181.17v21.02c-1.03,0-2.06-.39-2.84-1.17l-5.66-5.66c-1.56-1.57-1.56-4.11,0-5.68l8.51-8.51Z"/>
  <path class="cls-1" d="m59.73,245.25l-23.95-23.95c-2.53-2.53-.74-6.85,2.84-6.85h23.95c2.22,0,4.01,1.8,4.01,4.01v23.95c0,3.58-4.32,5.37-6.85,2.84Z"/>
  <path class="cls-1" d="m116.09,83.83c-11.55,0-20.92,9.37-20.92,20.93,0,9.53,14.24,28.72,19.22,35.14.87,1.11,2.54,1.11,3.4,0,4.98-6.42,19.23-25.61,19.23-35.14,0-11.56-9.37-20.93-20.93-20.93Zm0,31.56c-5.99,0-10.85-4.86-10.85-10.86s4.86-10.85,10.85-10.85,10.85,4.86,10.85,10.85-4.85,10.86-10.85,10.86Z"/>
  <polygon class="cls-1" points="190.69 197.48 201.61 208.4 182.47 216.62 190.69 197.48"/>
  <g>
    <path class="cls-1" d="m265.24,93.36h24.5v11.83h-39.42V30.82h14.91v62.53Z"/>
    <path class="cls-1" d="m298.95,59.58c2.38-4.61,5.61-8.17,9.69-10.65,4.08-2.49,8.65-3.73,13.69-3.73,4.4,0,8.26.89,11.56,2.66,3.3,1.78,5.95,4.02,7.94,6.71v-8.42h15.02v59.02h-15.02v-8.63c-1.92,2.77-4.56,5.06-7.94,6.87-3.37,1.81-7.26,2.72-11.67,2.72-4.97,0-9.5-1.28-13.58-3.83-4.08-2.56-7.32-6.16-9.69-10.81-2.38-4.65-3.57-9.99-3.57-16.03s1.19-11.26,3.57-15.87Zm40.75,6.77c-1.42-2.59-3.34-4.58-5.75-5.97-2.41-1.38-5.01-2.08-7.78-2.08s-5.33.68-7.67,2.02c-2.34,1.35-4.24,3.32-5.7,5.91-1.46,2.6-2.18,5.67-2.18,9.22s.73,6.66,2.18,9.32c1.45,2.66,3.37,4.7,5.75,6.12,2.38,1.42,4.92,2.13,7.62,2.13s5.36-.69,7.78-2.08c2.41-1.39,4.33-3.37,5.75-5.97,1.42-2.59,2.13-5.7,2.13-9.32s-.71-6.73-2.13-9.32Z"/>
    <path class="cls-1" d="m421.2,51.97c4.33,4.44,6.5,10.64,6.5,18.59v34.62h-14.91v-32.6c0-4.69-1.17-8.29-3.52-10.81-2.34-2.52-5.54-3.78-9.59-3.78s-7.37,1.26-9.75,3.78c-2.38,2.52-3.57,6.13-3.57,10.81v32.6h-14.91v-59.02h14.91v7.35c1.99-2.56,4.53-4.56,7.62-6.02s6.48-2.18,10.17-2.18c7.03,0,12.71,2.22,17.04,6.66Z"/>
    <path class="cls-1" d="m441.6,59.58c2.38-4.61,5.63-8.17,9.75-10.65,4.12-2.49,8.7-3.73,13.74-3.73,3.83,0,7.49.84,10.97,2.5,3.48,1.67,6.25,3.89,8.31,6.66v-28.02h15.13v78.83h-15.13v-8.73c-1.85,2.91-4.44,5.25-7.78,7.03-3.34,1.77-7.21,2.66-11.61,2.66-4.97,0-9.52-1.28-13.64-3.83-4.12-2.56-7.37-6.16-9.75-10.81-2.38-4.65-3.57-9.99-3.57-16.03s1.19-11.26,3.57-15.87Zm40.75,6.77c-1.42-2.59-3.34-4.58-5.75-5.97-2.41-1.38-5.01-2.08-7.78-2.08s-5.33.68-7.67,2.02c-2.34,1.35-4.24,3.32-5.7,5.91-1.46,2.6-2.18,5.67-2.18,9.22s.73,6.66,2.18,9.32c1.45,2.66,3.37,4.7,5.75,6.12,2.38,1.42,4.92,2.13,7.62,2.13s5.36-.69,7.78-2.08c2.41-1.39,4.33-3.37,5.75-5.97,1.42-2.59,2.13-5.7,2.13-9.32s-.71-6.73-2.13-9.32Z"/>
    <path class="cls-1" d="m551.11,103.26c-4.16-1.78-7.44-4.33-9.85-7.67-2.41-3.34-3.66-7.28-3.73-11.83h15.98c.21,3.06,1.3,5.47,3.25,7.24,1.95,1.78,4.63,2.66,8.04,2.66s6.21-.83,8.2-2.5c1.99-1.67,2.98-3.85,2.98-6.55,0-2.2-.68-4.01-2.02-5.43-1.35-1.42-3.04-2.54-5.06-3.36-2.02-.81-4.81-1.72-8.36-2.72-4.83-1.42-8.75-2.82-11.77-4.21-3.02-1.38-5.61-3.48-7.78-6.28-2.17-2.81-3.25-6.55-3.25-11.24,0-4.4,1.1-8.24,3.3-11.51,2.2-3.27,5.29-5.77,9.27-7.51,3.98-1.74,8.52-2.61,13.64-2.61,7.67,0,13.9,1.86,18.7,5.59,4.79,3.73,7.44,8.93,7.94,15.61h-16.41c-.14-2.56-1.22-4.67-3.25-6.34-2.02-1.67-4.71-2.5-8.04-2.5-2.91,0-5.24.75-6.98,2.24-1.74,1.49-2.61,3.66-2.61,6.5,0,1.99.66,3.64,1.97,4.95,1.31,1.32,2.95,2.38,4.9,3.2,1.95.82,4.7,1.76,8.26,2.82,4.83,1.42,8.77,2.84,11.83,4.26,3.05,1.42,5.68,3.55,7.88,6.39,2.2,2.84,3.3,6.57,3.3,11.19,0,3.98-1.03,7.67-3.09,11.08-2.06,3.41-5.08,6.12-9.05,8.15-3.98,2.02-8.7,3.04-14.17,3.04-5.19,0-9.85-.89-14.01-2.66Z"/>
    <path class="cls-1" d="m660.03,46.16v59.02h-15.02v-7.46c-1.92,2.56-4.42,4.56-7.51,6.02-3.09,1.45-6.45,2.18-10.07,2.18-4.62,0-8.7-.97-12.25-2.93s-6.34-4.83-8.36-8.63c-2.02-3.8-3.04-8.33-3.04-13.58v-34.62h14.91v32.49c0,4.69,1.17,8.29,3.51,10.81,2.34,2.52,5.54,3.78,9.59,3.78s7.35-1.26,9.69-3.78c2.34-2.52,3.52-6.12,3.52-10.81v-32.49h15.02Z"/>
    <path class="cls-1" d="m697.16,47.97c3.09-1.78,6.62-2.66,10.6-2.66v15.66h-3.94c-4.69,0-8.22,1.1-10.6,3.3-2.38,2.2-3.57,6.04-3.57,11.51v29.4h-14.91v-59.02h14.91v9.16c1.92-3.12,4.42-5.57,7.51-7.35Z"/>
    <path class="cls-1" d="m742.38,91.44l14.91-45.28h15.87l-21.84,59.02h-18.11l-21.73-59.02h15.98l14.91,45.28Z"/>
    <path class="cls-1" d="m836.01,80.14h-43.14c.35,4.26,1.85,7.6,4.47,10.02,2.63,2.41,5.86,3.62,9.69,3.62,5.54,0,9.48-2.38,11.83-7.14h16.09c-1.7,5.68-4.97,10.35-9.8,14.01-4.83,3.66-10.76,5.49-17.79,5.49-5.68,0-10.78-1.26-15.29-3.78-4.51-2.52-8.03-6.09-10.55-10.71-2.52-4.61-3.78-9.94-3.78-15.98s1.24-11.47,3.73-16.09c2.48-4.61,5.97-8.17,10.44-10.65,4.47-2.49,9.62-3.73,15.45-3.73s10.63,1.21,15.07,3.62c4.44,2.41,7.88,5.84,10.33,10.28,2.45,4.44,3.68,9.54,3.68,15.29,0,2.13-.14,4.05-.43,5.75Zm-15.02-10.01c-.07-3.83-1.46-6.91-4.16-9.21-2.7-2.31-6-3.46-9.91-3.46-3.69,0-6.8,1.12-9.32,3.36-2.52,2.24-4.07,5.35-4.63,9.32h28.02Z"/>
    <path class="cls-1" d="m903.77,46.16l-36.54,86.93h-15.87l12.78-29.4-23.65-57.53h16.72l15.23,41.23,15.45-41.23h15.87Z"/>
    <path class="cls-1" d="m293.11,160.83c5.68,2.89,10.03,7.02,13.06,12.4s4.54,11.7,4.54,18.97-1.51,13.59-4.54,18.93c-3.03,5.34-7.38,9.42-13.06,12.24-5.68,2.82-12.39,4.23-20.15,4.23h-22.14v-71.1h22.14c7.75,0,14.47,1.45,20.15,4.33Zm.87,51.82c4.83-4.86,7.24-11.68,7.24-20.46s-2.43-15.74-7.29-20.71c-4.86-4.97-11.85-7.45-20.96-7.45h-12.85v55.9h12.85c9.18,0,16.18-2.43,21.01-7.29Z"/>
    <path class="cls-1" d="m323.26,160.78c-1.22-1.23-1.84-2.72-1.84-4.49s.61-3.26,1.84-4.49c1.22-1.22,2.72-1.84,4.49-1.84s3.14.61,4.33,1.84c1.19,1.23,1.79,2.72,1.79,4.49s-.6,3.26-1.79,4.49c-1.19,1.22-2.64,1.84-4.33,1.84s-3.26-.61-4.49-1.84Zm8.98,10.91v55.9h-9.28v-55.9h9.28Z"/>
    <path class="cls-1" d="m383.8,173.94c3.64,2.11,6.34,4.76,8.11,7.96v-10.2h9.38v57.13c0,5.1-1.09,9.64-3.26,13.62-2.18,3.98-5.29,7.09-9.33,9.33-4.05,2.24-8.76,3.37-14.13,3.37-7.34,0-13.46-1.73-18.36-5.2-4.9-3.47-7.79-8.2-8.67-14.18h9.18c1.02,3.4,3.13,6.14,6.33,8.21,3.2,2.07,7.04,3.11,11.53,3.11,5.1,0,9.27-1.6,12.5-4.8,3.23-3.2,4.85-7.69,4.85-13.46v-11.73c-1.84,3.27-4.56,5.99-8.16,8.16-3.61,2.18-7.82,3.27-12.65,3.27s-9.47-1.23-13.52-3.67c-4.05-2.45-7.23-5.88-9.54-10.3-2.31-4.42-3.47-9.45-3.47-15.1s1.16-10.73,3.47-15.05c2.31-4.32,5.49-7.67,9.54-10.05,4.05-2.38,8.55-3.57,13.52-3.57s9.06,1.06,12.7,3.16Zm5.56,14.59c-1.7-3.13-4-5.52-6.89-7.19-2.89-1.67-6.07-2.5-9.54-2.5s-6.63.82-9.49,2.45c-2.86,1.63-5.13,4.01-6.83,7.14-1.7,3.13-2.55,6.8-2.55,11.02s.85,8.01,2.55,11.17c1.7,3.16,3.98,5.58,6.83,7.24,2.86,1.67,6.02,2.5,9.49,2.5s6.65-.83,9.54-2.5c2.89-1.66,5.18-4.08,6.89-7.24,1.7-3.16,2.55-6.85,2.55-11.07s-.85-7.89-2.55-11.02Z"/>
    <path class="cls-1" d="m417.31,160.78c-1.22-1.23-1.84-2.72-1.84-4.49s.61-3.26,1.84-4.49c1.22-1.22,2.72-1.84,4.49-1.84s3.14.61,4.33,1.84c1.19,1.23,1.79,2.72,1.79,4.49s-.6,3.26-1.79,4.49c-1.19,1.22-2.64,1.84-4.33,1.84s-3.26-.61-4.49-1.84Zm8.98,10.91v55.9h-9.28v-55.9h9.28Z"/>
    <path class="cls-1" d="m453.43,179.35v32.95c0,2.72.58,4.64,1.74,5.76,1.16,1.12,3.16,1.68,6.02,1.68h6.83v7.85h-8.37c-5.17,0-9.05-1.19-11.63-3.57-2.59-2.38-3.88-6.29-3.88-11.73v-32.95h-7.24v-7.65h7.24v-14.08h9.28v14.08h14.59v7.65h-14.59Z"/>
    <path class="cls-1" d="m479.24,184.4c2.31-4.32,5.49-7.67,9.54-10.05,4.05-2.38,8.55-3.57,13.52-3.57s9.15,1.06,12.75,3.16c3.61,2.11,6.29,4.76,8.06,7.96v-10.2h9.38v55.9h-9.38v-10.41c-1.84,3.27-4.58,5.97-8.21,8.11-3.64,2.14-7.87,3.21-12.7,3.21s-9.45-1.23-13.47-3.67c-4.01-2.45-7.18-5.88-9.49-10.3-2.31-4.42-3.47-9.45-3.47-15.1s1.16-10.73,3.47-15.05Zm41.32,4.13c-1.7-3.13-4-5.52-6.89-7.19-2.89-1.67-6.07-2.5-9.54-2.5s-6.63.82-9.49,2.45c-2.86,1.63-5.13,4.01-6.83,7.14-1.7,3.13-2.55,6.8-2.55,11.02s.85,8.01,2.55,11.17c1.7,3.16,3.98,5.58,6.83,7.24,2.86,1.67,6.02,2.5,9.49,2.5s6.65-.83,9.54-2.5c2.89-1.66,5.18-4.08,6.89-7.24,1.7-3.16,2.55-6.85,2.55-11.07s-.85-7.89-2.55-11.02Z"/>
    <path class="cls-1" d="m557.48,152.11v75.49h-9.28v-75.49h9.28Z"/>
    <path class="cls-1" d="m573.6,160.78c-1.22-1.23-1.84-2.72-1.84-4.49s.61-3.26,1.84-4.49c1.22-1.22,2.72-1.84,4.49-1.84s3.14.61,4.33,1.84c1.19,1.23,1.79,2.72,1.79,4.49s-.6,3.26-1.79,4.49c-1.19,1.22-2.64,1.84-4.33,1.84s-3.26-.61-4.49-1.84Zm8.98,10.91v55.9h-9.28v-55.9h9.28Z"/>
    <path class="cls-1" d="m605.32,219.95h27.44v7.65h-38.05v-7.65l27.14-40.7h-26.93v-7.55h37.64v7.55l-27.24,40.7Z"/>
    <path class="cls-1" d="m644.8,184.4c2.31-4.32,5.49-7.67,9.54-10.05,4.05-2.38,8.55-3.57,13.52-3.57s9.15,1.06,12.75,3.16c3.61,2.11,6.29,4.76,8.06,7.96v-10.2h9.38v55.9h-9.38v-10.41c-1.84,3.27-4.58,5.97-8.21,8.11-3.64,2.14-7.87,3.21-12.7,3.21s-9.45-1.23-13.47-3.67c-4.01-2.45-7.18-5.88-9.49-10.3-2.31-4.42-3.47-9.45-3.47-15.1s1.16-10.73,3.47-15.05Zm41.32,4.13c-1.7-3.13-4-5.52-6.89-7.19-2.89-1.67-6.07-2.5-9.54-2.5s-6.63.82-9.49,2.45c-2.86,1.63-5.13,4.01-6.83,7.14-1.7,3.13-2.55,6.8-2.55,11.02s.85,8.01,2.55,11.17c1.7,3.16,3.98,5.58,6.83,7.24,2.86,1.67,6.02,2.5,9.49,2.5s6.65-.83,9.54-2.5c2.89-1.66,5.18-4.08,6.89-7.24,1.7-3.16,2.55-6.85,2.55-11.07s-.85-7.89-2.55-11.02Z"/>
    <path class="cls-1" d="m725.09,179.35v32.95c0,2.72.58,4.64,1.74,5.76,1.16,1.12,3.16,1.68,6.02,1.68h6.83v7.85h-8.37c-5.17,0-9.05-1.19-11.63-3.57-2.59-2.38-3.88-6.29-3.88-11.73v-32.95h-7.24v-7.65h7.24v-14.08h9.28v14.08h14.59v7.65h-14.59Z"/>
    <path class="cls-1" d="m751.2,160.78c-1.22-1.23-1.84-2.72-1.84-4.49s.61-3.26,1.84-4.49c1.22-1.22,2.72-1.84,4.49-1.84s3.14.61,4.33,1.84c1.19,1.23,1.79,2.72,1.79,4.49s-.6,3.26-1.79,4.49c-1.19,1.22-2.64,1.84-4.33,1.84s-3.26-.61-4.49-1.84Zm8.98,10.91v55.9h-9.28v-55.9h9.28Z"/>
    <path class="cls-1" d="m786.14,224.95c-4.25-2.38-7.58-5.76-10-10.15-2.41-4.39-3.62-9.47-3.62-15.25s1.24-10.76,3.72-15.15c2.48-4.39,5.87-7.75,10.15-10.1s9.08-3.52,14.38-3.52,10.1,1.17,14.38,3.52,7.67,5.7,10.15,10.05c2.48,4.35,3.72,9.42,3.72,15.2s-1.28,10.86-3.83,15.25c-2.55,4.39-6,7.77-10.35,10.15-4.35,2.38-9.18,3.57-14.48,3.57s-9.98-1.19-14.23-3.57Zm23.62-6.94c2.92-1.56,5.29-3.91,7.09-7.04,1.8-3.13,2.7-6.94,2.7-11.42s-.89-8.3-2.65-11.43c-1.77-3.13-4.08-5.46-6.94-6.99-2.86-1.53-5.95-2.29-9.28-2.29s-6.51.76-9.33,2.29c-2.82,1.53-5.08,3.86-6.78,6.99-1.7,3.13-2.55,6.94-2.55,11.43s.83,8.4,2.5,11.53c1.67,3.13,3.89,5.46,6.68,6.99,2.79,1.53,5.85,2.3,9.18,2.3s6.46-.78,9.38-2.35Z"/>
    <path class="cls-1" d="m885.04,176.84c4.22,4.12,6.33,10.05,6.33,17.8v32.95h-9.18v-31.62c0-5.58-1.39-9.85-4.18-12.8-2.79-2.96-6.6-4.44-11.43-4.44s-8.79,1.53-11.68,4.59c-2.89,3.06-4.34,7.51-4.34,13.36v30.91h-9.28v-55.9h9.28v7.96c1.84-2.86,4.34-5.07,7.5-6.63,3.16-1.56,6.65-2.35,10.46-2.35,6.8,0,12.31,2.06,16.53,6.17Z"/>
  </g>
</svg>